<?xml version="1.0" encoding="UTF-8"?>
<svg xmlns="http://www.w3.org/2000/svg" viewBox="0 0 300 400" width="300" height="400">

  <rect width="300" height="400" fill="none"/>

  <defs>
    <path id="jokerArc" d="M 55,145 A 105,105 0 0,1 245,145"/>
    <clipPath id="cc">
      <circle cx="150" cy="258" r="89"/>
    </clipPath>
  </defs>

  <!-- ── JOKER TEXT ── -->
  <text font-family="Arial Black, Arial, sans-serif" font-weight="900"
        font-size="46" fill="#CC1111" letter-spacing="4">
    <textPath href="#jokerArc" startOffset="50%" text-anchor="middle">JOKER</textPath>
  </text>

  <!-- ── OUTER CIRCLE ── -->
  <path d="M 183,169 A 95,95 0 1,0 232,211"
        fill="none" stroke="#1B3A1B" stroke-width="9" stroke-linecap="round"/>

  <!-- Spines at gap -->
  <g fill="#1B3A1B">
    <path d="M 185,171 C 188,159 196,151 200,158 C 196,164 191,171 185,171 Z"/>
    <path d="M 199,167 C 204,155 213,150 215,158 C 210,161 205,167 199,167 Z"/>
    <path d="M 214,168 C 221,157 229,154 230,162 C 225,164 219,168 214,168 Z"/>
    <path d="M 227,177 C 235,168 242,168 242,176 C 237,177 232,178 227,177 Z"/>
  </g>

  <!-- ══ INTERIOR ══ -->
  <g clip-path="url(#cc)" fill="none" stroke="#1B4A1B" stroke-linecap="round">

    <!-- ── 16 ORGANIC RINGS, ~5-6px apart ── -->

    <!-- R1  ~r=7 -->
    <path d="M 158,234 C 162,232 166,237 165,244 C 164,250 160,254 157,253
             C 153,255 148,254 146,251 C 143,248 142,243 144,239
             C 146,235 149,232 152,233 C 155,234 156,235 158,234 Z"
          stroke-width="2.4"/>

    <!-- R2  ~r=12 -->
    <path d="M 166,228 C 171,225 176,232 174,244 C 172,254 166,260 163,258
             C 160,261 152,261 147,257 C 141,253 138,246 141,238
             C 144,230 149,225 153,227 C 157,229 163,231 166,228 Z"
          stroke-width="1.8"/>

    <!-- R3  ~r=17 -->
    <path d="M 170,222 C 177,218 183,228 180,244 C 177,258 169,265 166,262
             C 162,266 152,265 143,261 C 133,256 130,246 134,236
             C 138,226 145,218 149,221 C 153,224 164,226 170,222 Z"
          stroke-width="2.6"/>

    <!-- R4  ~r=22 -->
    <path d="M 173,216 C 182,211 189,224 186,243 C 183,260 173,269 169,266
             C 165,270 152,268 138,263 C 123,257 120,244 126,232
             C 132,220 141,212 146,215 C 151,218 165,221 173,216 Z"
          stroke-width="2.0"/>

    <!-- R5  ~r=27 -->
    <path d="M 174,210 C 185,205 194,220 190,243 C 186,264 174,274 170,271
             C 165,276 151,273 131,268 C 111,262 108,246 115,232
             C 122,218 132,206 137,210 C 142,214 164,215 174,210 Z"
          stroke-width="2.8"/>

    <!-- R6  ~r=32 -->
    <path d="M 178,205 C 190,199 201,217 196,244 C 191,269 177,280 173,276
             C 167,282 152,279 127,273 C 102,266 99,248 108,231
             C 117,214 129,200 135,204 C 141,208 166,211 178,205 Z"
          stroke-width="1.9"/>

    <!-- R7  ~r=37 -->
    <path d="M 181,200 C 194,193 207,213 201,245 C 195,274 179,286 175,282
             C 168,289 152,285 122,278 C 92,270 90,250 100,230
             C 110,210 125,195 131,199 C 137,203 168,207 181,200 Z"
          stroke-width="2.5"/>

    <!-- R8  ~r=42 -->
    <path d="M 184,195 C 199,187 213,210 207,246 C 201,280 183,293 178,288
             C 171,296 153,291 118,283 C 83,274 82,253 93,230
             C 104,206 121,190 128,194 C 135,198 169,203 184,195 Z"
          stroke-width="1.9"/>

    <!-- R9  ~r=47 -->
    <path d="M 186,190 C 202,181 219,207 212,248 C 205,285 186,299 181,294
             C 173,302 154,297 114,288 C 74,278 74,256 86,230
             C 98,203 117,185 125,189 C 133,193 170,199 186,190 Z"
          stroke-width="2.7"/>

    <!-- R10  ~r=52 -->
    <path d="M 189,185 C 207,175 226,204 218,250 C 210,292 189,307 183,301
             C 175,310 155,304 110,294 C 65,283 66,259 79,230
             C 92,200 113,181 122,185 C 131,189 171,195 189,185 Z"
          stroke-width="2.0"/>

    <!-- R11  ~r=57 -->
    <path d="M 192,180 C 212,168 233,200 224,252 C 215,300 192,316 186,309
             C 177,319 156,312 106,301 C 56,289 58,263 72,230
             C 86,197 110,175 120,180 C 130,185 172,192 192,180 Z"
          stroke-width="2.6"/>

    <!-- R12  ~r=62 -->
    <path d="M 195,175 C 217,161 240,197 230,254 C 220,307 194,324 188,316
             C 179,328 157,320 102,307 C 47,294 50,266 65,229
             C 80,192 107,169 118,174 C 129,179 173,189 195,175 Z"
          stroke-width="1.9"/>

    <!-- R13  ~r=67 -->
    <path d="M 198,170 C 222,154 247,194 236,256 C 225,314 197,332 190,323
             C 181,337 158,328 98,313 C 38,298 42,268 58,228
             C 74,188 104,162 116,168 C 128,174 174,186 198,170 Z"
          stroke-width="2.7"/>

    <!-- R14  ~r=72 -->
    <path d="M 201,165 C 227,147 254,191 242,258 C 230,321 200,340 193,330
             C 183,346 159,336 94,319 C 29,301 35,270 52,226
             C 69,182 101,156 114,162 C 127,168 175,183 201,165 Z"
          stroke-width="1.9"/>

    <!-- R15  ~r=77 -->
    <path d="M 202,160 C 231,140 260,187 248,260 C 236,329 204,349 196,339
             C 186,356 161,345 90,326 C 19,306 28,272 46,224
             C 64,176 99,149 113,156 C 127,163 173,180 202,160 Z"
          stroke-width="2.4"/>

    <!-- R16  ~r=82, outermost -->
    <path d="M 204,155 C 235,133 266,184 253,263 C 240,337 206,358 198,347
             C 187,366 162,354 86,333 C 10,311 22,274 42,222
             C 62,170 98,142 113,149 C 128,156 173,178 204,155 Z"
          stroke-width="2.2"/>

    <!-- ── RADIALS — 12 directions, wiggly, varied weights ── -->
    <path d="M 163,238 C 170,224 178,212 188,203 C 196,196 207,190 218,185" stroke-width="2.0"/>
    <path d="M 168,246 C 182,238 196,228 210,218 C 222,210 232,202 240,194" stroke-width="1.8"/>
    <path d="M 170,256 C 185,252 200,244 214,234 C 226,226 236,216 242,206" stroke-width="2.2"/>
    <path d="M 168,268 C 177,282 186,298 193,314 C 199,328 202,342 199,354" stroke-width="1.9"/>
    <path d="M 160,274 C 162,290 160,308 155,324 C 150,338 144,350 138,358" stroke-width="2.1"/>
    <path d="M 148,274 C 142,290 134,308 126,324 C 118,338 110,350 102,358" stroke-width="1.8"/>
    <path d="M 136,268 C 120,280 104,294 91,310 C 80,324 72,338 68,350"     stroke-width="2.2"/>
    <path d="M 130,258 C 114,252 96,244 80,236 C 66,230 54,224 48,216"      stroke-width="1.9"/>
    <path d="M 130,248 C 114,240 96,230 80,220 C 66,212 54,204 46,196"      stroke-width="2.0"/>
    <path d="M 136,238 C 120,224 104,210 89,200 C 76,191 64,184 56,178"     stroke-width="1.8"/>
    <path d="M 146,232 C 144,216 143,200 145,184 C 147,170 151,158 156,148" stroke-width="2.1"/>
    <path d="M 156,230 C 158,214 162,198 166,182 C 170,168 175,156 180,146" stroke-width="1.8"/>

    <!-- ── CONNECTORS — dense, fill thin spots ── -->
    <path d="M 116,222 C 110,234 109,248 116,260" stroke-width="2.0"/>
    <path d="M 190,224 C 197,236 198,250 192,262" stroke-width="1.8"/>
    <path d="M 88,268 C 82,282 83,298 92,310"     stroke-width="2.1"/>
    <path d="M 212,270 C 220,284 219,300 210,312"  stroke-width="1.8"/>
    <path d="M 100,312 C 93,326 94,340 104,350"    stroke-width="2.0"/>
    <path d="M 188,316 C 197,330 196,344 188,354"  stroke-width="1.8"/>
    <path d="M 128,188 C 118,196 112,208 115,220"  stroke-width="2.0"/>
    <path d="M 180,184 C 191,192 197,206 194,218"  stroke-width="1.8"/>
    <path d="M 67,242 C 60,256 60,272 68,284"      stroke-width="2.0"/>
    <path d="M 234,240 C 243,254 242,270 234,282"  stroke-width="1.8"/>
    <path d="M 74,294 C 68,308 70,322 80,334"      stroke-width="2.0"/>
    <path d="M 226,296 C 235,310 234,326 224,338"  stroke-width="1.8"/>
    <path d="M 134,354 C 140,346 152,342 162,348"  stroke-width="2.0"/>
    <path d="M 96,228 C 90,240 90,254 98,264"      stroke-width="1.8"/>
    <path d="M 204,230 C 212,242 212,256 204,266"  stroke-width="1.8"/>
    <path d="M 76,264 C 70,276 71,290 80,300"      stroke-width="1.9"/>
    <path d="M 223,266 C 232,278 231,292 221,302"  stroke-width="1.9"/>
    <path d="M 106,340 C 100,328 98,316 106,308"   stroke-width="1.8"/>
    <path d="M 176,344 C 184,332 186,320 178,310"  stroke-width="1.8"/>

    <!-- ── EYE ── -->
    <circle cx="160" cy="210" r="14"  stroke-width="3.2"/>
    <circle cx="162" cy="208" r="5.5" fill="#1B4A1B" stroke="none"/>
    <circle cx="160" cy="210" r="21"  stroke-width="2.0"/>
    <path   d="M 145,200 C 152,192 169,191 178,198" stroke-width="2.6"/>

  </g>

</svg>
